<svg width="56" height="56" viewBox="0 0 56 56" fill="none" xmlns="http://www.w3.org/2000/svg">
<path d="M48 28C48 39.6423 39.0024 49 28 49C16.9976 49 8 39.6423 8 28C8 16.3577 16.9976 7 28 7C39.0024 7 48 16.3577 48 28Z" stroke="white" stroke-width="2"/>
<path d="M18.7944 21.2783V18.1045H22.2246V21.2783H18.7944ZM18.7944 36V23.0361H22.2246V36H18.7944ZM37.5444 36H34.1143V29.3838C34.1143 27.984 34.041 27.0807 33.8945 26.6738C33.748 26.2588 33.508 25.9373 33.1743 25.7095C32.8488 25.4816 32.4541 25.3677 31.9902 25.3677C31.3962 25.3677 30.8631 25.5304 30.3911 25.856C29.9191 26.1815 29.5936 26.6128 29.4146 27.1499C29.2437 27.687 29.1582 28.6799 29.1582 30.1284V36H25.728V23.0361H28.9141V24.9404C30.0452 23.4756 31.4694 22.7432 33.1865 22.7432C33.9434 22.7432 34.6351 22.8815 35.2617 23.1582C35.8883 23.4268 36.3604 23.7726 36.6777 24.1958C37.0033 24.619 37.2271 25.0991 37.3491 25.6362C37.4793 26.1733 37.5444 26.9424 37.5444 27.9434V36Z" fill="white"/>
</svg>
