<svg width="56" height="56" viewBox="0 0 56 56" fill="none" xmlns="http://www.w3.org/2000/svg">
<path d="M48 28C48 39.6423 39.0024 49 28 49C16.9976 49 8 39.6423 8 28C8 16.3577 16.9976 7 28 7C39.0024 7 48 16.3577 48 28Z" stroke="white" stroke-width="2"/>
<path d="M33 16.5H29V31.5C29 35.1 26.6667 35.6667 25.5 35.5C22.7 35.9 22 33.6667 22 32.5C22 29.3 25 28.5 26.5 28.5V25.5C19.7 25.1 18.3334 30 18.5 32.5C19.3 38.5 23.5 39.6667 25.5 39.5C33.1 39.9 33.6667 29.3333 33 24C33.8 25.2 37 25.8333 38.5 26V22.5C35.3 23.3 33.5 18.8333 33 16.5Z" fill="white"/>
</svg>
